{
  "accessors": [
    {
      "bufferView": 2,
      "componentType": 5126,
      "count": 6369,
      "max": [
        0.20444780588150024,
        0.6326613426208496,
        0.1693640947341919
      ],
      "min": [
        -0.22774595022201538,
        -0.8012683987617493,
        -0.15174247324466705
      ],
      "type": "VEC3"
    },
    {
      "bufferView": 2,
      "byteOffset": 76428,
      "componentType": 5126,
      "count": 6369,
      "max": [
        0.8191259503364563,
        0.7070841789245605,
        0.8938441872596741
      ],
      "min": [
        -0.7071047425270081,
        -0.7071128487586975,
        -0.7070560455322266
      ],
      "type": "VEC3"
    },
    {
      "bufferView": 1,
      "componentType": 5126,
      "count": 6369,
      "max": [
        0.99462890625,
        0.98681640625
      ],
      "min": [
        0.00550079345703125,
        0.0107421875
      ],
      "type": "VEC2"
    },
    {
      "bufferView": 0,
      "componentType": 5125,
      "count": 33492,
      "type": "SCALAR"
    }
  ],
  "asset": {
    "extras": {
      "author": "xRUN (https://sketchfab.com/XRUNFF)",
      "license": "CC-BY-4.0 (http://creativecommons.org/licenses/by/4.0/)",
      "source": "https://sketchfab.com/3d-models/squid-game-blue-skin-b008e58cb664468c8366af9b42e95eac",
      "title": "SQUID GAME BLUE SKIN"
    },
    "generator": "Sketchfab-11.97.0",
    "version": "2.0"
  },
  "bufferViews": [
    {
      "buffer": 0,
      "byteLength": 133968,
      "name": "floatBufferViews",
      "target": 34963
    },
    {
      "buffer": 0,
      "byteLength": 50952,
      "byteOffset": 133968,
      "byteStride": 8,
      "name": "floatBufferViews",
      "target": 34962
    },
    {
      "buffer": 0,
      "byteLength": 152856,
      "byteOffset": 184920,
      "byteStride": 12,
      "name": "floatBufferViews",
      "target": 34962
    }
  ],
  "buffers": [
    {
      "byteLength": 337776,
      "uri": "scene.bin"
    }
  ],
  "images": [
    {
      "uri": "textures/mat0.003_baseColor.png"
    }
  ],
  "materials": [
    {
      "doubleSided": true,
      "name": "mat0.003",
      "pbrMetallicRoughness": {
        "baseColorTexture": {
          "index": 0
        },
        "metallicFactor": 0.0,
        "roughnessFactor": 0.8308205978495098
      }
    }
  ],
  "meshes": [
    {
      "name": "Mesh_0006.rip_mat0.003_0",
      "primitives": [
        {
          "attributes": {
            "NORMAL": 1,
            "POSITION": 0,
            "TEXCOORD_0": 2
          },
          "indices": 3,
          "material": 0,
          "mode": 4
        }
      ]
    }
  ],
  "nodes": [
    {
      "children": [
        1
      ],
      "matrix": [
        1.0,
        0.0,
        0.0,
        0.0,
        0.0,
        2.220446049250313e-16,
        -1.0,
        0.0,
        0.0,
        1.0,
        2.220446049250313e-16,
        0.0,
        0.0,
        0.0,
        0.0,
        1.0
      ],
      "name": "Sketchfab_model"
    },
    {
      "children": [
        2
      ],
      "matrix": [
        0.009999999776482582,
        0.0,
        0.0,
        0.0,
        0.0,
        0.0,
        0.009999999776482582,
        0.0,
        0.0,
        -0.009999999776482582,
        0.0,
        0.0,
        0.0,
        0.0,
        0.0,
        1.0
      ],
      "name": "821d3e72ae0349699a1525c205aa4607.fbx"
    },
    {
      "children": [
        3
      ],
      "name": "RootNode"
    },
    {
      "children": [
        4
      ],
      "matrix": [
        10000.0,
        0.0,
        0.0,
        0.0,
        0.0,
        9999.999999999867,
        0.0016292067073209113,
        0.0,
        0.0,
        -0.0016292067073209113,
        9999.999999999867,
        0.0,
        0.0,
        7572.0419921875,
        0.0,
        1.0
      ],
      "name": "Mesh_0006.rip"
    },
    {
      "mesh": 0,
      "name": "Mesh_0006.rip_mat0.003_0"
    }
  ],
  "samplers": [
    {
      "magFilter": 9729,
      "minFilter": 9987,
      "wrapS": 10497,
      "wrapT": 10497
    }
  ],
  "scene": 0,
  "scenes": [
    {
      "name": "Sketchfab_Scene",
      "nodes": [
        0
      ]
    }
  ],
  "textures": [
    {
      "sampler": 0,
      "source": 0
    }
  ]
}
